<svg width="193" height="32" viewBox="0 0 193 32" fill="none" xmlns="http://www.w3.org/2000/svg">
<path d="M7.94922 0C4.59089 9.49966e-06 3.72246 0.348333 2.88379 0.796875C1.9785 1.28111 1.28104 1.97843 0.796875 2.88379C0.348317 3.72251 0 4.59078 0 7.94922V23.251C9.49962e-06 26.6093 0.34832 27.4777 0.796875 28.3164C1.28105 29.2217 1.9785 29.9191 2.88379 30.4033C3.72246 30.8519 4.59089 31.2002 7.94922 31.2002H23.251C26.6094 31.2002 27.4777 30.8519 28.3164 30.4033C29.2218 29.9192 29.9191 29.2217 30.4033 28.3164C30.8519 27.4777 31.2002 26.6093 31.2002 23.251V7.94922C31.2002 4.59077 30.8519 3.72252 30.4033 2.88379C29.9191 1.97842 29.2218 1.2811 28.3164 0.796875C27.4777 0.348327 26.6094 0 23.251 0H7.94922ZM21.9756 2.60059C24.7743 2.60059 25.4983 2.89086 26.1973 3.26465C26.9514 3.66807 27.5321 4.24882 27.9355 5.00293C28.3093 5.70187 28.6006 6.4259 28.6006 9.22461V9.66504C28.6006 9.86767 28.4378 10.0324 28.2354 10.041C28.1604 10.0442 28.0844 10.0486 28.0078 10.0527C26.3318 10.1442 25.0254 11.7307 24.9443 13.6895C24.9366 13.8759 24.9294 14.0346 24.9229 14.1787C24.9006 14.6675 24.8857 14.9883 24.8857 15.6523C24.8857 16.3075 24.9018 16.6805 24.9258 17.2412V17.2461C24.9296 17.3348 24.9333 17.4283 24.9375 17.5283C25.0186 19.4794 26.3239 21.0539 27.9932 21.1465C28.0745 21.151 28.1558 21.1558 28.2354 21.1592C28.4378 21.1678 28.6006 21.3326 28.6006 21.5352V21.9756C28.6006 24.7743 28.3093 25.4984 27.9355 26.1973C27.5321 26.9514 26.9514 27.5322 26.1973 27.9355C25.4983 28.3093 24.7743 28.6006 21.9756 28.6006H9.22461C6.42612 28.6006 5.70276 28.3093 5.00391 27.9355C4.24956 27.5321 3.66814 26.9515 3.26465 26.1973C2.89085 25.4984 2.60059 24.7743 2.60059 21.9756V21.5352C2.60059 21.3327 2.76253 21.168 2.96484 21.1592C3.03454 21.1562 3.10566 21.1522 3.17676 21.1484C4.86014 21.0578 6.17231 19.4593 6.25781 17.4922C6.26341 17.3637 6.26844 17.246 6.27344 17.1357C6.29784 16.5943 6.31445 16.2325 6.31445 15.6523C6.31445 15.0951 6.29926 14.788 6.27637 14.3232V14.3213C6.26807 14.1533 6.25902 13.9641 6.24902 13.7354C6.16283 11.7563 4.84785 10.1401 3.1543 10.0508C3.0908 10.0474 3.02714 10.0437 2.96484 10.041C2.76253 10.0322 2.60059 9.86758 2.60059 9.66504V9.22461C2.60059 6.4259 2.89085 5.70187 3.26465 5.00293C3.66814 4.24863 4.24956 3.6681 5.00391 3.26465C5.70276 2.8909 6.42611 2.60059 9.22461 2.60059H21.9756ZM15.6006 7.28027C15.2216 7.28027 14.8149 7.29187 14.4033 7.31055C11.1277 7.45922 8.63129 10.1245 8.47559 13.3262C8.4156 14.5607 8.37013 15.7223 8.37012 16.9863C8.37012 18.1223 8.4114 19.1468 8.4668 20.2705C8.62449 23.4669 11.1219 26.1168 14.3857 26.2666C14.8034 26.2857 15.2163 26.2969 15.6006 26.2969C15.9732 26.2969 16.3729 26.2857 16.7773 26.2676C20.0649 26.12 22.5627 23.4393 22.7256 20.2344C22.7847 19.0709 22.8311 18.0314 22.8311 16.9863C22.831 15.8683 22.7783 14.6751 22.7129 13.373C22.5516 10.1599 20.0545 7.45338 16.748 7.30762C16.3537 7.29026 15.9643 7.28028 15.6006 7.28027ZM15.6006 8.56738C15.9405 8.56739 16.3101 8.57794 16.6914 8.59473C19.2886 8.70926 21.2964 10.841 21.4268 13.4375C21.4921 14.7396 21.543 15.904 21.543 16.9863C21.543 17.9959 21.4985 19.0071 21.4395 20.1689C21.3082 22.7525 19.304 24.8653 16.7197 24.9814C16.3285 24.999 15.9489 25.0098 15.6006 25.0098C15.2414 25.0098 14.8487 24.9981 14.4443 24.9795C11.8767 24.8617 9.87958 22.7742 9.75293 20.207C9.69783 19.0893 9.65723 18.09 9.65723 16.9863C9.65724 15.7538 9.70291 14.6168 9.7627 13.3887C9.8879 10.8136 11.8863 8.71358 14.4619 8.59668C14.8601 8.57861 15.2466 8.56738 15.6006 8.56738ZM15.6006 10.0283C15.3245 10.0283 15.0222 10.0379 14.7109 10.0527C12.7957 10.1442 11.3029 11.7299 11.21 13.6885C11.2012 13.8751 11.193 14.0346 11.1855 14.1787C11.16 14.6677 11.1436 14.9883 11.1436 15.6523C11.1436 16.3075 11.1612 16.6805 11.1885 17.2412C11.1929 17.3313 11.1973 17.4265 11.2021 17.5283C11.2949 19.4794 12.7865 21.054 14.6943 21.1465C15.0113 21.1619 15.3197 21.1719 15.6006 21.1719C15.8712 21.1719 16.1669 21.1627 16.4717 21.1484C18.3952 21.0577 19.8944 19.4592 19.9922 17.4922C19.9986 17.3638 20.0051 17.2459 20.0107 17.1357C20.0387 16.5945 20.0576 16.2324 20.0576 15.6523C20.0576 15.0951 20.0398 14.789 20.0137 14.3242C20.0041 14.1555 19.9939 13.9656 19.9824 13.7354C19.8839 11.7562 18.3809 10.14 16.4453 10.0508C16.1498 10.0372 15.8635 10.0283 15.6006 10.0283ZM18.0693 16.7148C18.3467 16.7149 18.5713 16.9394 18.5713 17.2168V17.4873C18.519 18.5332 17.7293 19.5814 16.3867 19.6846L16.3682 19.6855H16.1025C15.8253 19.6854 15.6008 19.4609 15.6006 19.1836C15.6006 18.9062 15.8251 18.6808 16.1025 18.6807H16.3281C17.0997 18.6129 17.5318 18.033 17.5664 17.4492V17.2168C17.5664 16.9393 17.7919 16.7148 18.0693 16.7148Z" fill="white"/>
<path d="M47.2002 8.72119C48.8408 8.72119 50.0791 9.08447 50.915 9.81104C51.7588 10.5376 52.1807 11.6704 52.1807 13.2095V21.9399H50.2236L49.6963 20.1001H49.6025C49.2354 20.5688 48.8564 20.9556 48.4658 21.2603C48.0752 21.5649 47.6221 21.7915 47.1064 21.9399C46.5986 22.0962 45.9775 22.1743 45.2432 22.1743C44.4697 22.1743 43.7783 22.0337 43.1689 21.7524C42.5596 21.4634 42.0791 21.0259 41.7275 20.4399C41.376 19.854 41.2002 19.1118 41.2002 18.2134C41.2002 16.8774 41.6963 15.8735 42.6885 15.2017C43.6885 14.5298 45.1963 14.1587 47.2119 14.0884L49.4619 14.0063V13.3267C49.4619 12.4282 49.251 11.7876 48.8291 11.4048C48.415 11.022 47.8291 10.8306 47.0713 10.8306C46.4229 10.8306 45.7939 10.9243 45.1846 11.1118C44.5752 11.2993 43.9814 11.5298 43.4033 11.8032L42.5127 9.85791C43.1455 9.52197 43.8643 9.24854 44.6689 9.0376C45.4814 8.82666 46.3252 8.72119 47.2002 8.72119ZM49.4502 15.7407L47.7744 15.7993C46.3994 15.8462 45.4346 16.0806 44.8799 16.5024C44.3252 16.9243 44.0479 17.5024 44.0479 18.2368C44.0479 18.8774 44.2393 19.3462 44.6221 19.6431C45.0049 19.9321 45.5088 20.0767 46.1338 20.0767C47.0869 20.0767 47.876 19.8071 48.501 19.2681C49.1338 18.7212 49.4502 17.9204 49.4502 16.8657V15.7407Z" fill="white"/>
<path d="M66.7063 12.2954C66.7063 13.0454 66.4758 13.6587 66.0149 14.1353C65.5618 14.604 64.9368 14.9126 64.1399 15.061V15.1548C64.9914 15.2642 65.7024 15.5649 66.2727 16.0571C66.843 16.5493 67.1282 17.2329 67.1282 18.1079C67.1282 18.8501 66.9407 19.5103 66.5657 20.0884C66.1985 20.6587 65.6125 21.1118 64.8079 21.4478C64.011 21.7759 62.968 21.9399 61.6789 21.9399H55.7961V8.96729H61.6555C62.6243 8.96729 63.4875 9.07275 64.2454 9.28369C65.011 9.49463 65.6125 9.84229 66.05 10.3267C66.4875 10.811 66.7063 11.4673 66.7063 12.2954ZM64.2571 18.0142C64.2571 17.3735 64.011 16.9126 63.5188 16.6313C63.0344 16.3501 62.3235 16.2095 61.386 16.2095H58.5618V19.9126H61.4446C62.3196 19.9126 63.0071 19.7681 63.5071 19.479C64.0071 19.1821 64.2571 18.6938 64.2571 18.0142ZM63.9055 12.5415C63.9055 12.0337 63.7141 11.6587 63.3313 11.4165C62.9485 11.1665 62.3469 11.0415 61.5266 11.0415H58.5618V14.1821H61.1516C62.0579 14.1821 62.7414 14.0532 63.2024 13.7954C63.6711 13.5298 63.9055 13.1118 63.9055 12.5415Z" fill="white"/>
<path d="M72.6421 8.96729V15.5884C72.6421 15.7993 72.6343 16.0688 72.6186 16.397C72.6108 16.7173 72.5952 17.0532 72.5718 17.4048C72.5483 17.7485 72.5249 18.0649 72.5014 18.354C72.478 18.6431 72.4585 18.8579 72.4429 18.9985L78.9702 8.96729H82.3218V21.9399H79.685V15.3892C79.685 15.0454 79.6929 14.647 79.7085 14.1938C79.7319 13.7407 79.7554 13.3032 79.7788 12.8813C79.81 12.4595 79.8296 12.1392 79.8374 11.9204L73.3335 21.9399H69.9936V8.96729H72.6421Z" fill="white"/>
<path d="M91.1286 8.72119C92.7693 8.72119 94.0075 9.08447 94.8435 9.81104C95.6872 10.5376 96.1091 11.6704 96.1091 13.2095V21.9399H94.1521L93.6247 20.1001H93.531C93.1638 20.5688 92.7849 20.9556 92.3943 21.2603C92.0036 21.5649 91.5505 21.7915 91.0349 21.9399C90.5271 22.0962 89.906 22.1743 89.1716 22.1743C88.3982 22.1743 87.7068 22.0337 87.0974 21.7524C86.488 21.4634 86.0075 21.0259 85.656 20.4399C85.3044 19.854 85.1286 19.1118 85.1286 18.2134C85.1286 16.8774 85.6247 15.8735 86.6169 15.2017C87.6169 14.5298 89.1247 14.1587 91.1404 14.0884L93.3904 14.0063V13.3267C93.3904 12.4282 93.1794 11.7876 92.7575 11.4048C92.3435 11.022 91.7575 10.8306 90.9997 10.8306C90.3513 10.8306 89.7224 10.9243 89.113 11.1118C88.5036 11.2993 87.9099 11.5298 87.3318 11.8032L86.4411 9.85791C87.0739 9.52197 87.7927 9.24854 88.5974 9.0376C89.4099 8.82666 90.2536 8.72119 91.1286 8.72119ZM93.3786 15.7407L91.7029 15.7993C90.3279 15.8462 89.363 16.0806 88.8083 16.5024C88.2536 16.9243 87.9763 17.5024 87.9763 18.2368C87.9763 18.8774 88.1677 19.3462 88.5505 19.6431C88.9333 19.9321 89.4372 20.0767 90.0622 20.0767C91.0154 20.0767 91.8044 19.8071 92.4294 19.2681C93.0622 18.7212 93.3786 17.9204 93.3786 16.8657V15.7407Z" fill="white"/>
<path d="M106.381 8.72119C107.92 8.72119 109.154 9.28369 110.084 10.4087C111.021 11.5337 111.49 13.2056 111.49 15.4243C111.49 16.8931 111.271 18.1313 110.834 19.1392C110.404 20.1392 109.799 20.897 109.018 21.4126C108.244 21.9204 107.342 22.1743 106.311 22.1743C105.654 22.1743 105.084 22.0884 104.6 21.9165C104.115 21.7446 103.701 21.522 103.357 21.2485C103.014 20.9673 102.725 20.6626 102.49 20.3345H102.326C102.365 20.647 102.4 20.9946 102.432 21.3774C102.471 21.7524 102.49 22.0962 102.49 22.4087V27.6938H99.7246V8.96729H101.975L102.361 10.7603H102.49C102.732 10.3931 103.025 10.0532 103.369 9.74072C103.721 9.42822 104.143 9.18213 104.635 9.00244C105.135 8.81494 105.717 8.72119 106.381 8.72119ZM105.643 10.9712C104.885 10.9712 104.275 11.1235 103.814 11.4282C103.361 11.7251 103.029 12.1743 102.818 12.7759C102.615 13.3774 102.506 14.1313 102.49 15.0376V15.4243C102.49 16.3853 102.588 17.2017 102.783 17.8735C102.986 18.5376 103.318 19.0454 103.779 19.397C104.248 19.7407 104.881 19.9126 105.678 19.9126C106.35 19.9126 106.904 19.729 107.342 19.3618C107.787 18.9946 108.119 18.4712 108.338 17.7915C108.557 17.1118 108.666 16.311 108.666 15.3892C108.666 13.9907 108.416 12.9048 107.916 12.1313C107.424 11.3579 106.666 10.9712 105.643 10.9712Z" fill="white"/>
<path d="M119.606 8.72119C120.762 8.72119 121.754 8.95947 122.582 9.43604C123.41 9.9126 124.047 10.5884 124.492 11.4634C124.938 12.3384 125.16 13.3853 125.16 14.604V16.0806H116.5C116.531 17.3384 116.867 18.3071 117.508 18.9868C118.156 19.6665 119.063 20.0063 120.227 20.0063C121.055 20.0063 121.797 19.9282 122.453 19.772C123.117 19.6079 123.801 19.3696 124.504 19.0571V21.2954C123.856 21.6001 123.196 21.8228 122.524 21.9634C121.852 22.104 121.047 22.1743 120.11 22.1743C118.836 22.1743 117.715 21.9282 116.746 21.436C115.785 20.936 115.031 20.1938 114.485 19.2095C113.946 18.2251 113.676 17.0024 113.676 15.5415C113.676 14.0884 113.922 12.854 114.414 11.8384C114.906 10.8228 115.598 10.0493 116.488 9.51807C117.379 8.98682 118.418 8.72119 119.606 8.72119ZM119.606 10.7954C118.738 10.7954 118.035 11.0767 117.496 11.6392C116.965 12.2017 116.653 13.0259 116.559 14.1118H122.465C122.457 13.4634 122.348 12.8892 122.137 12.3892C121.934 11.8892 121.621 11.4985 121.199 11.2173C120.785 10.936 120.254 10.7954 119.606 10.7954Z" fill="white"/>
<path d="M133.252 22.1743C132.026 22.1743 130.963 21.936 130.065 21.4595C129.166 20.9829 128.475 20.2524 127.991 19.2681C127.506 18.2837 127.264 17.0337 127.264 15.5181C127.264 13.9399 127.53 12.6509 128.061 11.6509C128.592 10.6509 129.327 9.9126 130.264 9.43604C131.209 8.95947 132.291 8.72119 133.51 8.72119C134.284 8.72119 134.983 8.79932 135.608 8.95557C136.241 9.104 136.776 9.2876 137.213 9.50635L136.393 11.7095C135.916 11.5142 135.428 11.3501 134.928 11.2173C134.428 11.0845 133.948 11.0181 133.487 11.0181C132.729 11.0181 132.096 11.186 131.588 11.522C131.088 11.8579 130.713 12.3579 130.463 13.022C130.221 13.686 130.1 14.5103 130.1 15.4946C130.1 16.4478 130.225 17.2524 130.475 17.9087C130.725 18.5571 131.096 19.0493 131.588 19.3853C132.081 19.7134 132.686 19.8774 133.405 19.8774C134.116 19.8774 134.752 19.7915 135.315 19.6196C135.877 19.4478 136.409 19.2251 136.909 18.9517V21.3423C136.416 21.6235 135.889 21.8306 135.327 21.9634C134.764 22.104 134.073 22.1743 133.252 22.1743Z" fill="white"/>
<path d="M144.883 8.72119C146.04 8.72119 147.032 8.95947 147.86 9.43604C148.688 9.9126 149.325 10.5884 149.77 11.4634C150.216 12.3384 150.438 13.3853 150.438 14.604V16.0806H141.778C141.809 17.3384 142.145 18.3071 142.786 18.9868C143.434 19.6665 144.341 20.0063 145.505 20.0063C146.333 20.0063 147.075 19.9282 147.731 19.772C148.395 19.6079 149.079 19.3696 149.782 19.0571V21.2954C149.133 21.6001 148.473 21.8228 147.801 21.9634C147.13 22.104 146.325 22.1743 145.387 22.1743C144.114 22.1743 142.993 21.9282 142.024 21.436C141.063 20.936 140.309 20.1938 139.762 19.2095C139.223 18.2251 138.954 17.0024 138.954 15.5415C138.954 14.0884 139.2 12.854 139.692 11.8384C140.184 10.8228 140.876 10.0493 141.766 9.51807C142.657 8.98682 143.696 8.72119 144.883 8.72119ZM144.883 10.7954C144.016 10.7954 143.313 11.0767 142.774 11.6392C142.243 12.2017 141.93 13.0259 141.837 14.1118H147.743C147.735 13.4634 147.626 12.8892 147.415 12.3892C147.212 11.8892 146.899 11.4985 146.477 11.2173C146.063 10.936 145.532 10.7954 144.883 10.7954Z" fill="white"/>
<path d="M155.952 8.96729V15.5884C155.952 15.7993 155.944 16.0688 155.929 16.397C155.921 16.7173 155.905 17.0532 155.882 17.4048C155.858 17.7485 155.835 18.0649 155.811 18.354C155.788 18.6431 155.768 18.8579 155.753 18.9985L162.28 8.96729H165.632V21.9399H162.995V15.3892C162.995 15.0454 163.003 14.647 163.018 14.1938C163.042 13.7407 163.065 13.3032 163.089 12.8813C163.12 12.4595 163.14 12.1392 163.147 11.9204L156.643 21.9399H153.304V8.96729H155.952ZM164.659 3.50635C164.581 4.31104 164.362 5.00635 164.003 5.59229C163.651 6.17041 163.116 6.61572 162.397 6.92822C161.679 7.24072 160.733 7.39697 159.561 7.39697C158.351 7.39697 157.393 7.24854 156.69 6.95166C155.987 6.64697 155.479 6.20557 155.167 5.62744C154.854 5.0415 154.667 4.33447 154.604 3.50635H157.112C157.19 4.37354 157.417 4.95947 157.792 5.26416C158.167 5.56104 158.772 5.70947 159.608 5.70947C160.327 5.70947 160.901 5.54932 161.331 5.229C161.768 4.90869 162.03 4.33447 162.116 3.50635H164.659Z" fill="white"/>
<path d="M180.028 21.9399H177.251V11.1235H173.653C173.497 13.0923 173.302 14.7759 173.068 16.1743C172.833 17.5728 172.54 18.7134 172.189 19.5962C171.837 20.4712 171.403 21.1118 170.888 21.5181C170.372 21.9243 169.751 22.1274 169.025 22.1274C168.704 22.1274 168.415 22.104 168.157 22.0571C167.9 22.0181 167.669 21.9556 167.466 21.8696V19.7017C167.599 19.7485 167.743 19.7876 167.9 19.8188C168.056 19.8501 168.216 19.8657 168.38 19.8657C168.669 19.8657 168.935 19.7485 169.177 19.5142C169.427 19.272 169.657 18.8931 169.868 18.3774C170.079 17.8618 170.271 17.1821 170.443 16.3384C170.614 15.4868 170.771 14.4556 170.911 13.2446C171.052 12.0259 171.177 10.6001 171.286 8.96729H180.028V21.9399Z" fill="white"/>
<path d="M188.964 22.1743C187.738 22.1743 186.675 21.936 185.777 21.4595C184.878 20.9829 184.187 20.2524 183.703 19.2681C183.218 18.2837 182.976 17.0337 182.976 15.5181C182.976 13.9399 183.242 12.6509 183.773 11.6509C184.304 10.6509 185.038 9.9126 185.976 9.43604C186.921 8.95947 188.003 8.72119 189.222 8.72119C189.996 8.72119 190.695 8.79932 191.32 8.95557C191.953 9.104 192.488 9.2876 192.925 9.50635L192.105 11.7095C191.628 11.5142 191.14 11.3501 190.64 11.2173C190.14 11.0845 189.66 11.0181 189.199 11.0181C188.441 11.0181 187.808 11.186 187.3 11.522C186.8 11.8579 186.425 12.3579 186.175 13.022C185.933 13.686 185.812 14.5103 185.812 15.4946C185.812 16.4478 185.937 17.2524 186.187 17.9087C186.437 18.5571 186.808 19.0493 187.3 19.3853C187.792 19.7134 188.398 19.8774 189.117 19.8774C189.828 19.8774 190.464 19.7915 191.027 19.6196C191.589 19.4478 192.121 19.2251 192.621 18.9517V21.3423C192.128 21.6235 191.601 21.8306 191.038 21.9634C190.476 22.104 189.785 22.1743 188.964 22.1743Z" fill="white"/>
</svg>
