<svg width="33" height="33" viewBox="0 0 33 33" fill="none" xmlns="http://www.w3.org/2000/svg">
<path d="M26.95 29.375L18.2875 20.7125C17.6 21.2625 16.8094 21.6979 15.9156 22.0187C15.0219 22.3396 14.0708 22.5 13.0625 22.5C10.5646 22.5 8.45075 21.6347 6.721 19.904C4.99125 18.1733 4.12592 16.0595 4.125 13.5625C4.12408 11.0655 4.98942 8.95167 6.721 7.221C8.45258 5.49033 10.5664 4.625 13.0625 4.625C15.5586 4.625 17.6729 5.49033 19.4054 7.221C21.1379 8.95167 22.0028 11.0655 22 13.5625C22 14.5708 21.8396 15.5219 21.5188 16.4156C21.1979 17.3094 20.7625 18.1 20.2125 18.7875L28.875 27.45L26.95 29.375ZM13.0625 19.75C14.7813 19.75 16.2424 19.1487 17.446 17.946C18.6496 16.7433 19.2509 15.2822 19.25 13.5625C19.2491 11.8428 18.6478 10.3821 17.446 9.18038C16.2443 7.97863 14.7831 7.37683 13.0625 7.375C11.3419 7.37317 9.88121 7.97496 8.68038 9.18038C7.47954 10.3858 6.87775 11.8465 6.875 13.5625C6.87225 15.2785 7.47404 16.7397 8.68038 17.946C9.88671 19.1523 11.3474 19.7537 13.0625 19.75Z" fill="#100E09" fill-opacity="0.3"/>
</svg>
