<svg width="48" height="50" viewBox="0 0 48 50" fill="none" xmlns="http://www.w3.org/2000/svg">
<g clip-path="url(#clip0_141_165)">
<path d="M47.0769 49.9939H24.054C23.9649 49.9939 23.8767 49.9763 23.7944 49.9421C23.7121 49.908 23.6374 49.8579 23.5745 49.7948C23.5116 49.7317 23.4617 49.6568 23.4278 49.5744C23.3939 49.4921 23.3766 49.4038 23.3769 49.3147V49.2814L24.7311 22.3105C24.7411 22.1383 24.8166 21.9763 24.9421 21.8579C25.0675 21.7394 25.2335 21.6733 25.4061 21.673H45.7227C46.0831 21.673 46.3769 21.9543 46.3977 22.3084L47.7456 49.148C47.7595 49.1994 47.7665 49.2557 47.7665 49.3168C47.7665 49.4958 47.6953 49.6696 47.5688 49.7962C47.4422 49.9227 47.2705 49.9939 47.0915 49.9939H47.0894H47.0769ZM28.1227 27.3314C28.1269 28.3064 28.7665 29.1293 29.6477 29.4105L29.6623 29.4147C30.3727 32.8543 32.8165 35.4001 35.7206 35.4001C38.6248 35.4001 41.0644 32.8522 41.7706 29.4251C42.2432 29.2855 42.6552 28.9912 42.9406 28.5895C43.226 28.1879 43.3683 27.702 43.3447 27.2098C43.3211 26.7176 43.1329 26.2476 42.8103 25.8751C42.4877 25.5026 42.0494 25.2492 41.5656 25.1554C41.0819 25.0617 40.5806 25.1331 40.1423 25.3582C39.7039 25.5833 39.3538 25.9491 39.1481 26.3968C38.9424 26.8446 38.893 27.3485 39.0077 27.8277C39.1225 28.3069 39.3948 28.7337 39.781 29.0397L39.7852 29.0439C39.2686 31.5397 37.6415 33.3709 35.7123 33.3709C33.7831 33.3709 32.1644 31.5501 31.6436 29.0647C31.9377 28.837 32.169 28.5382 32.3158 28.1964C32.4625 27.8546 32.5199 27.481 32.4824 27.1109C32.4449 26.7409 32.3139 26.3864 32.1016 26.0809C31.8893 25.7755 31.6028 25.5291 31.269 25.3649C30.9352 25.2008 30.5651 25.1243 30.1936 25.1427C29.8221 25.1611 29.4614 25.2737 29.1454 25.47C28.8294 25.6663 28.5686 25.9397 28.3875 26.2647C28.2064 26.5896 28.111 26.9552 28.1102 27.3272V27.3334L28.1227 27.3314ZM0.678969 47.3334C0.586983 47.3333 0.495991 47.3144 0.411545 47.278C0.327099 47.2415 0.25097 47.1882 0.187804 47.1213C0.124639 47.0544 0.0757613 46.9754 0.0441545 46.889C0.0125476 46.8026 -0.00112569 46.7107 0.00396903 46.6189L1.8873 9.13136C1.89739 8.9591 1.97287 8.79718 2.09833 8.6787C2.22378 8.56021 2.38974 8.4941 2.5623 8.49386H7.15397C8.59355 3.49386 12.4352 0.00219727 16.9019 0.00219727C21.3686 0.00219727 25.2061 3.49595 26.6456 8.4897H30.8019C31.1602 8.4897 31.4561 8.77095 31.4748 9.12511L32.0186 19.9793H25.4061C24.1394 19.9793 23.1061 20.973 23.0415 22.223V22.2293L21.7811 47.3355L0.678969 47.3334ZM22.8102 11.8293C22.2684 12.1825 21.855 12.7011 21.6315 13.3081C21.4081 13.9151 21.3865 14.578 21.57 15.1982C21.7535 15.8184 22.1323 16.3629 22.65 16.7506C23.1677 17.1383 23.7968 17.3486 24.4436 17.3501C25.1463 17.3532 25.8278 17.1094 26.3693 16.6614C26.9107 16.2134 27.2776 15.5895 27.4061 14.8985C27.5346 14.2076 27.4164 13.4935 27.0722 12.8808C26.728 12.2681 26.1796 11.7957 25.5227 11.5459L25.5019 11.5397C25.0102 6.0022 21.3415 1.68761 16.904 1.68761C12.4665 1.68761 8.78314 6.01053 8.29772 11.5584C7.66995 11.804 7.14319 12.2539 6.80236 12.8354C6.46153 13.417 6.3265 14.0964 6.41903 14.7641C6.51157 15.4318 6.82629 16.0489 7.31244 16.5159C7.79858 16.9828 8.42783 17.2725 9.09872 17.3381C9.76961 17.4036 10.443 17.2414 11.0104 16.8774C11.5778 16.5135 12.0061 15.969 12.2262 15.3319C12.4463 14.6947 12.4454 14.002 12.2237 13.3655C12.0019 12.7289 11.5723 12.1855 11.004 11.823L10.9915 11.8168C11.3415 7.64595 13.8581 4.40011 16.904 4.40011C19.9498 4.40011 22.4727 7.65636 22.8165 11.8355L22.8102 11.8293ZM13.6665 8.48553H20.1248C19.8511 7.83673 19.4094 7.27267 18.845 6.85152C18.2807 6.43038 17.6142 6.16739 16.9144 6.0897L16.8956 6.08761C15.4373 6.24803 14.229 7.18136 13.6769 8.46261L13.6665 8.48553ZM40.3311 27.273C40.3231 27.164 40.3378 27.0544 40.3741 26.9513C40.4104 26.8481 40.4676 26.7535 40.5421 26.6735C40.6166 26.5934 40.7067 26.5295 40.807 26.4859C40.9073 26.4422 41.0154 26.4196 41.1248 26.4196C41.2342 26.4196 41.3423 26.4422 41.4426 26.4859C41.5429 26.5295 41.6331 26.5934 41.7075 26.6735C41.782 26.7535 41.8392 26.8481 41.8755 26.9513C41.9118 27.0544 41.9265 27.164 41.9186 27.273C41.9009 27.4711 41.8098 27.6554 41.6631 27.7897C41.5164 27.9239 41.3247 27.9984 41.1258 27.9984C40.927 27.9984 40.7353 27.9239 40.5886 27.7897C40.4419 27.6554 40.3487 27.4711 40.3311 27.273ZM29.4477 27.273C29.4477 27.1156 29.4944 26.9618 29.5818 26.8309C29.6693 26.7 29.7936 26.598 29.939 26.5378C30.0844 26.4775 30.2444 26.4618 30.3988 26.4925C30.5532 26.5232 30.695 26.599 30.8063 26.7103C30.9176 26.8216 30.9934 26.9634 31.0241 27.1178C31.0548 27.2721 31.039 27.4322 30.9788 27.5776C30.9186 27.723 30.8166 27.8473 30.6857 27.9347C30.5548 28.0222 30.401 28.0689 30.2436 28.0689C30.1396 28.0683 30.0367 28.0473 29.9409 28.007C29.8451 27.9667 29.7581 27.9079 29.685 27.834C29.6119 27.7601 29.554 27.6726 29.5147 27.5763C29.4754 27.48 29.4555 27.377 29.4561 27.273H29.4477ZM23.2477 14.4689C23.2477 14.1553 23.3723 13.8546 23.594 13.6329C23.8157 13.4111 24.1164 13.2866 24.43 13.2866C24.7436 13.2866 25.0443 13.4111 25.266 13.6329C25.4877 13.8546 25.6123 14.1553 25.6123 14.4689C25.6123 14.7824 25.4877 15.0831 25.266 15.3049C25.0443 15.5266 24.7436 15.6512 24.43 15.6512C24.1164 15.6512 23.8157 15.5266 23.594 15.3049C23.3723 15.0831 23.2477 14.7824 23.2477 14.4689ZM8.18939 14.4689C8.17755 14.3061 8.1994 14.1426 8.25356 13.9887C8.30772 13.8347 8.39303 13.6936 8.50416 13.5741C8.6153 13.4546 8.74988 13.3593 8.8995 13.2941C9.04912 13.2289 9.21056 13.1953 9.37376 13.1953C9.53696 13.1953 9.69841 13.2289 9.84802 13.2941C9.99764 13.3593 10.1322 13.4546 10.2434 13.5741C10.3545 13.6936 10.4398 13.8347 10.494 13.9887C10.5481 14.1426 10.57 14.3061 10.5581 14.4689C10.5332 14.7656 10.3978 15.0421 10.1786 15.2436C9.95942 15.4451 9.67254 15.557 9.3748 15.557C9.07706 15.557 8.79019 15.4451 8.57102 15.2436C8.35185 15.0421 8.2143 14.7656 8.18939 14.4689Z" fill="#3BBF56"/>
</g>
<defs>
<clipPath id="clip0_141_165">
<rect width="47.92" height="50" fill="white"/>
</clipPath>
</defs>
</svg>
