<svg width="50" height="50" viewBox="0 0 50 50" fill="none" xmlns="http://www.w3.org/2000/svg">
<path d="M8.49984 7.29159C8.49984 5.62492 9.95817 3.95825 11.8332 3.95825C13.7082 3.95825 15.1665 5.41659 15.1665 7.29159C15.1665 9.16658 13.4998 10.4166 11.8332 10.4166C10.1665 10.4166 8.49984 8.95825 8.49984 7.29159ZM45.5832 8.12492L44.5415 6.24992L27.8748 14.7916L28.9165 16.6666L45.5832 8.12492ZM43.0832 42.2916L44.9582 44.1666C43.7082 45.4166 42.4582 46.2499 40.9998 46.8749C39.5415 47.4999 37.8748 47.9166 36.2082 47.9166H3.9165V45.2083H9.5415L13.9165 37.9166L9.12484 31.2499L7.45817 14.9999C7.45817 13.1249 9.12484 11.4583 10.9998 11.4583C11.6248 11.4583 12.2498 11.6666 12.6665 11.8749L19.9582 17.2916L24.7498 15.6249L26.4165 18.9583L19.1248 22.0833C18.9165 21.8749 15.7915 19.5833 13.4998 17.7083L14.3332 24.9999L25.3748 34.3749L28.9165 45.2083H36.2082C37.4582 45.2083 38.7082 44.9999 39.9582 44.3749C41.2082 43.9582 42.2498 43.1249 43.0832 42.2916ZM14.3332 45.2083H24.7498L21.4165 37.0832L16.6248 33.1249L19.1248 38.3333L14.3332 45.2083Z" fill="#3BBF56"/>
</svg>
