<svg width="50" height="50" viewBox="0 0 50 50" fill="none" xmlns="http://www.w3.org/2000/svg">
<path fill-rule="evenodd" clip-rule="evenodd" d="M29.0002 7C30.6578 7 32.2476 7.65848 33.4197 8.83058C34.5918 10.0027 35.2502 11.5924 35.2502 13.25H41.5002C42.6053 13.25 43.6651 13.689 44.4465 14.4704C45.2279 15.2518 45.6669 16.3116 45.6669 17.4167V38.25C45.6669 39.3551 45.2279 40.4149 44.4465 41.1963C43.6651 41.9777 42.6053 42.4167 41.5002 42.4167H8.16691C7.06184 42.4167 6.00203 41.9777 5.22063 41.1963C4.43923 40.4149 4.00024 39.3551 4.00024 38.25V17.4167C4.00024 16.3116 4.43923 15.2518 5.22063 14.4704C6.00203 13.689 7.06184 13.25 8.16691 13.25H14.4169C14.4169 11.5924 15.0754 10.0027 16.2475 8.83058C17.4196 7.65848 19.0093 7 20.6669 7H29.0002ZM16.5002 15.3333C15.99 15.3334 15.4975 15.5207 15.1161 15.8598C14.7348 16.1989 14.4912 16.6661 14.4315 17.1729L14.4169 17.4167V38.25C14.4175 38.781 14.6208 39.2917 14.9853 39.6778C15.3499 40.064 15.8481 40.2963 16.3781 40.3274C16.9082 40.3586 17.4302 40.1861 17.8374 39.8453C18.2446 39.5045 18.5063 39.021 18.569 38.4937L18.5836 38.25V17.4167C18.5836 16.8641 18.3641 16.3342 17.9734 15.9435C17.5827 15.5528 17.0528 15.3333 16.5002 15.3333ZM33.1669 15.3333C32.6144 15.3333 32.0845 15.5528 31.6938 15.9435C31.3031 16.3342 31.0836 16.8641 31.0836 17.4167V38.25C31.0836 38.8025 31.3031 39.3324 31.6938 39.7231C32.0845 40.1138 32.6144 40.3333 33.1669 40.3333C33.7194 40.3333 34.2493 40.1138 34.6401 39.7231C35.0308 39.3324 35.2502 38.8025 35.2502 38.25V17.4167C35.2502 16.8641 35.0308 16.3342 34.6401 15.9435C34.2493 15.5528 33.7194 15.3333 33.1669 15.3333ZM29.0002 11.1667H20.6669C20.1566 11.1667 19.6641 11.3541 19.2828 11.6932C18.9015 12.0322 18.6579 12.4995 18.5982 13.0062L18.5836 13.25H31.0836C31.0835 12.7397 30.8962 12.2472 30.5571 11.8659C30.218 11.4846 29.7508 11.241 29.244 11.1812L29.0002 11.1667Z" fill="#3BBF56"/>
</svg>
