<svg width="45" height="45" viewBox="0 0 45 45" fill="none" xmlns="http://www.w3.org/2000/svg">
<path d="M22.5 7.5C19.5333 7.5 16.6332 8.37973 14.1665 10.028C11.6997 11.6762 9.77713 14.0189 8.64181 16.7597C7.5065 19.5006 7.20945 22.5166 7.78823 25.4264C8.36701 28.3361 9.79562 31.0088 11.8934 33.1066C13.9912 35.2044 16.6639 36.633 19.5737 37.2118C22.4834 37.7906 25.4994 37.4935 28.2403 36.3582C30.9811 35.2229 33.3238 33.3003 34.972 30.8335C36.6203 28.3668 37.5 25.4667 37.5 22.5C37.5 18.5218 35.9197 14.7064 33.1066 11.8934C30.2936 9.08035 26.4783 7.5 22.5 7.5ZM29.8688 17.775L27.4125 29.3812C27.225 30.2062 26.7375 30.3937 26.0438 30.0187L22.2938 27.2437L20.4188 28.9875C20.3304 29.1029 20.217 29.1966 20.0871 29.2616C19.9571 29.3266 19.814 29.3611 19.6688 29.3625L19.9313 25.6125L26.8688 19.3313C27.1875 19.0688 26.8688 18.9187 26.4188 19.1812L17.9063 24.525L14.1563 23.3625C13.35 23.1187 13.3313 22.5562 14.325 22.1812L28.7813 16.5562C29.4938 16.35 30.0938 16.7625 29.8688 17.775Z" fill="white"/>
</svg>
