<svg width="45" height="45" viewBox="0 0 45 45" fill="none" xmlns="http://www.w3.org/2000/svg">
<path d="M7.9875 7.9875C5.625 10.3725 5.625 14.1863 5.625 21.825V23.175C5.625 30.8025 5.625 34.6162 7.9875 37.0125C10.3725 39.375 14.1863 39.375 21.825 39.375H23.175C30.8025 39.375 34.6162 39.375 37.0125 37.0125C39.375 34.6275 39.375 30.8137 39.375 23.175V21.825C39.375 14.1975 39.375 10.3838 37.0125 7.9875C34.6275 5.625 30.8137 5.625 23.175 5.625H21.825C14.1975 5.625 10.3838 5.625 7.9875 7.9875ZM11.3175 15.8962H15.1875C15.3113 22.3312 18.1463 25.0537 20.3963 25.6162V15.8962H24.03V21.4425C26.2463 21.2063 28.5863 18.675 29.3738 15.885H32.9963C32.7007 17.3292 32.1106 18.6969 31.2627 19.9028C30.4149 21.1087 29.3277 22.1269 28.0688 22.8937C29.4739 23.5929 30.7149 24.5821 31.7097 25.796C32.7045 27.01 33.4306 28.4211 33.84 29.9362H29.8463C28.9913 27.27 26.8538 25.2 24.03 24.9188V29.9362H23.58C15.885 29.9362 11.4975 24.6712 11.3175 15.8962Z" fill="white"/>
</svg>
