<svg width="50" height="50" viewBox="0 0 50 50" fill="none" xmlns="http://www.w3.org/2000/svg">
<path d="M42.2168 2.79883C40.9082 2.79883 39.6191 3.42676 38.2617 4.75C37.8711 5.13477 37.5 5.53711 37.1289 5.93359C37.4902 6.47949 37.7246 7.16797 37.8809 7.73633C38.4277 7.13574 38.9648 6.52442 39.4922 6.00195C40.4785 5.02734 41.3574 4.47949 42.1191 4.57031C43.6914 4.75586 44.4336 5.20996 45.0098 5.82129C45.5859 6.43262 45.9961 7.29785 46.6113 8.28027L48.0957 7.34473C47.5586 6.4834 47.1191 5.49414 46.2891 4.60938C44.8633 3.42481 43.5254 2.79785 42.2168 2.79883ZM11.1035 4.45606C5.89355 4.47852 3.51562 6.1709 1.76172 7.95996L3.01758 9.19043C4.71875 7.45508 6.43848 6.08984 11.8066 6.22949L15.1758 9.40527H16.6406C16.6211 8.53223 15.8789 7.70606 15.4102 7.20801C13.9551 5.63184 13.0566 4.45215 11.1035 4.45606ZM25.4297 5.41211C24.4434 5.41211 23.457 5.43262 22.5391 5.46777C22.9102 6.28613 23.0859 7.16504 23.1836 7.89746C23.2812 9.03418 21.6602 9.10254 21.4453 8.13379C21.3281 7.29297 20.9961 6.20117 20.5762 5.57227C19.0918 5.66992 17.7539 5.80176 16.6406 5.93652C17.3535 6.81055 18.3984 8.06543 18.3984 8.96582C18.4473 17.7246 18.125 26.5527 17.4512 35.4199C17.6074 35.2539 17.7637 35.0879 17.9297 34.9414C18.75 34.1992 19.7266 33.6035 20.8594 33.6719H20.8691C21.123 33.6914 21.3672 33.7402 21.6016 33.8086C21.6211 32.1875 21.6602 30.791 21.6113 29.4727C22.1289 30.0195 22.6562 30.4492 23.3691 29.4141C23.4375 31.1328 23.3594 32.8809 23.3398 34.9707C23.4473 35.0781 23.5352 35.1856 23.6328 35.293C24.3555 36.1328 24.9414 37.168 25.4297 38.1836C25.6055 38.5547 25.7617 38.916 25.9082 39.2676C26.0352 33.75 25.957 28.2422 25.6934 22.7246C26.5332 23.8281 26.9922 23.4082 27.4512 22.6465C27.7148 28.1738 27.793 33.7109 27.666 39.2383C28.7793 38.1348 30.1172 37.002 31.7285 37.0313C32.1289 37.041 32.4902 37.1289 32.8223 37.2754L32.832 34.9414C33.6035 35.8105 34.1406 35.6152 34.5898 34.9414L34.5703 38.6719C34.9121 39.0234 35.2441 39.4434 35.5273 39.8145C35.9082 39.6191 36.3965 39.3848 36.9824 39.1309L36.4258 31.9141C37.0117 32.4512 37.5977 32.8906 38.1836 31.7773L38.7012 38.4668C39.3457 38.2422 40.0195 38.0566 40.6934 37.9785C39.5996 28.8574 38.2324 19.2285 36.3672 9.03418H36.377C36.2402 8.3125 36.0547 7.6084 35.8008 7.12402C35.5566 6.64063 35.3125 6.41797 34.9512 6.33594C33.1738 5.93359 31.2695 5.68652 29.3555 5.55078C30.1953 7.22461 30.1758 8.96582 30.1953 10.4004C30.3027 11.4551 28.5156 12.0605 28.4375 10.4199C28.4082 8.59277 28.457 6.95703 27.1973 5.44141C26.6113 5.42188 26.0254 5.41309 25.4297 5.41211ZM34.2969 8.49024C35.4102 12.7637 36.3086 20.1563 36.9434 24.5117C36.8555 26.2305 35.5566 25.8203 35.2051 24.7656C34.5703 20.3711 33.6328 12.9395 32.5977 8.93652C33.5645 9.68848 34.1602 9.61035 34.2969 8.49024ZM21.875 10.4492C22.2168 15.8203 22.1094 21.1035 21.8066 26.3184C21.8262 27.3926 20.3125 27.6953 20.0488 26.2207C20.3516 21.0449 20.459 15.8398 20.1172 10.5664C20.9863 11.8652 21.5039 11.4746 21.875 10.4492ZM26.9043 12.6465C27.2168 15.332 27.3242 16.8359 27.2852 18.4961C26.6602 19.4238 26.084 19.2676 25.5273 18.457C25.5664 16.8945 25.459 15.5078 25.166 12.8418C25.8496 13.6816 26.416 13.4863 26.9043 12.6465ZM32.0117 15.3027C32.3437 20.2539 32.4316 24.0918 32.5586 30.4199C32.0703 30.9473 31.6016 31.5625 30.8008 30.459C30.6738 24.1309 30.5859 20.332 30.2539 15.4199C30.9863 16.3281 31.5332 16.0059 32.0117 15.3027ZM7.98828 32.959C6.94043 32.9297 6.41016 34.8047 6.68164 35.8203C7.04102 37.168 10.0781 38.2422 10.0781 38.2422C10.0781 38.2422 9.88281 33.0078 7.98828 32.959ZM12.6172 32.9199C12.5391 32.9785 12.4902 33.0566 12.4512 33.1445C12.041 34.1113 14.6582 35.4004 14.6582 35.4004C14.6582 35.4004 15.2344 33.7012 14.7168 33.1738C14.2578 32.7051 13.0957 32.4902 12.6172 32.9199ZM43.8184 32.5488C43.7695 32.5488 43.7305 32.5488 43.6914 32.5586C42.5488 32.7734 42.334 34.8828 42.8809 35.9668C42.8809 35.9668 44.7168 35.0781 44.8145 34.209C44.8926 33.5938 44.4238 32.5684 43.8184 32.5488ZM46.7285 34.5508C44.7461 34.6582 45.0879 40.2734 45.0879 40.2734C45.0879 40.2734 47.793 39.2481 48.1348 38.0371C48.4766 36.8359 47.9785 34.4824 46.7285 34.5508ZM19.1113 36.2402C18.4766 36.8164 17.8418 37.666 17.2852 38.5352C16.1914 40.2734 15.4492 42.0508 15.4492 42.0508L15.0977 42.9004C12.9492 41.8164 11.4941 41.2598 9.45117 41.1816C8.1416 41.1328 7.0332 42.3047 6.77246 43.3691C6.63477 43.9941 6.77246 44.7656 7.66016 45.8691C19.4336 47.3145 38.0176 47.9297 47.8027 45.9082C48.1445 44.3066 47.5781 43.2031 46.5332 42.207C45.3906 41.1035 43.623 40.293 42.1387 39.8145C41.4258 39.5801 39.707 39.9316 38.291 40.4883C36.8652 41.0547 35.7129 41.709 35.7129 41.709L34.9902 42.1191L34.541 41.4355C34.541 41.4355 34.0723 40.7227 33.4375 40.0293C32.793 39.3359 31.9238 38.7891 31.709 38.7891C31.0645 38.7793 29.6875 39.6875 28.6328 40.7715C27.5879 41.8457 26.8164 42.9395 26.8164 42.9395L25.7422 44.4531L25.2441 42.666C25.2441 42.666 24.7266 40.8008 23.8379 38.9453C23.3984 38.0078 22.8613 37.0898 22.3047 36.4356C21.0645 35.127 20.3223 35.166 19.1113 36.2402ZM3.47461 37.5C3.05762 37.4902 2.69531 37.6172 2.5127 37.9395C1.70508 39.3457 5.51855 41.7773 5.51855 41.7773C5.51855 41.7773 6.19043 39.1895 5.42188 38.3301C5.0127 37.8809 4.16895 37.5098 3.47461 37.5Z" fill="#3BBF56"/>
</svg>
