<svg width="45" height="45" viewBox="0 0 45 45" fill="none" xmlns="http://www.w3.org/2000/svg">
<path d="M35.7188 9.20635C33.9995 7.4703 31.9519 6.09379 29.6953 5.15703C27.4387 4.22027 25.0183 3.74201 22.575 3.7501C12.3375 3.7501 3.99375 12.0939 3.99375 22.3314C3.99375 25.6126 4.85625 28.8001 6.46875 31.6126L3.84375 41.2501L13.6875 38.6626C16.4062 40.1439 19.4625 40.9314 22.575 40.9314C32.8125 40.9314 41.1563 32.5876 41.1563 22.3501C41.1563 17.3814 39.225 12.7126 35.7188 9.20635ZM22.575 37.7813C19.8 37.7813 17.0813 37.0313 14.7 35.6251L14.1375 35.2876L8.2875 36.8251L9.84375 31.1251L9.46875 30.5439C7.92665 28.0821 7.10798 25.2362 7.10625 22.3314C7.10625 13.8189 14.0437 6.88135 22.5562 6.88135C26.6812 6.88135 30.5625 8.49385 33.4688 11.4189C34.908 12.8511 36.0486 14.5549 36.8243 16.4313C37.6 18.3078 37.9954 20.3196 37.9875 22.3501C38.025 30.8626 31.0875 37.7813 22.575 37.7813ZM31.05 26.2314C30.5812 26.0064 28.2937 24.8814 27.8812 24.7126C27.45 24.5626 27.15 24.4876 26.8313 24.9376C26.5125 25.4064 25.6312 26.4564 25.3687 26.7564C25.1062 27.0751 24.825 27.1126 24.3562 26.8689C23.8875 26.6439 22.3875 26.1376 20.625 24.5626C19.2375 23.3251 18.3187 21.8064 18.0375 21.3376C17.775 20.8689 18 20.6251 18.2437 20.3814C18.45 20.1751 18.7125 19.8376 18.9375 19.5751C19.1625 19.3126 19.2563 19.1064 19.4062 18.8064C19.5563 18.4876 19.4812 18.2251 19.3687 18.0001C19.2562 17.7751 18.3187 15.4876 17.9437 14.5501C17.5687 13.6501 17.175 13.7626 16.8938 13.7439H15.9937C15.675 13.7439 15.1875 13.8564 14.7562 14.3251C14.3437 14.7939 13.1438 15.9189 13.1438 18.2064C13.1438 20.4939 14.8125 22.7064 15.0375 23.0064C15.2625 23.3251 18.3187 28.0126 22.9688 30.0189C24.075 30.5064 24.9375 30.7876 25.6125 30.9939C26.7188 31.3501 27.7313 31.2938 28.5375 31.1814C29.4375 31.0501 31.2937 30.0564 31.6687 28.9689C32.0625 27.8814 32.0625 26.9626 31.9313 26.7564C31.8 26.5501 31.5187 26.4564 31.05 26.2314Z" fill="white"/>
</svg>
